<svg width="215" height="55" fill="none" xmlns="http://www.w3.org/2000/svg"><path d="M78.96 23.3247c0-.3174-.0285-.6063-.0855-.8667-.057-.2604-.179-.5005-.3662-.7202-.179-.2197-.4435-.4395-.7935-.6592-.3418-.2197-.7893-.4476-1.3427-.6836a31.8061 31.8061 0 0 1-1.9165-.8789c-.6185-.3174-1.176-.6836-1.6724-1.0986-.4964-.4151-.8911-.9033-1.1841-1.4649-.2848-.5696-.4272-1.2369-.4272-2.0019 0-.7487.1343-1.4282.4028-2.0386.2767-.6103.6673-1.1312 1.1719-1.5625.5045-.4394 1.0945-.7772 1.77-1.0132.6836-.236 1.4445-.354 2.2827-.354 1.1393 0 2.124.236 2.9541.708.8382.472 1.4852 1.119 1.9409 1.9409.4639.822.6958 1.766.6958 2.8321h-3.5644c0-.5046-.0733-.9481-.2197-1.3306-.1384-.3906-.3622-.6958-.6714-.9155-.3093-.2197-.708-.3296-1.1963-.3296-.4557 0-.8342.0936-1.1353.2808-.2929.179-.5127.4272-.6592.7446-.1383.3092-.2075.6592-.2075 1.0498 0 .293.0692.5574.2075.7934.1465.2279.3459.4354.5982.6226.2523.179.5493.354.8911.5249.3499.1709.7324.3377 1.1475.5005.8056.3174 1.5177.6673 2.1362 1.0498.6185.3744 1.1353.7975 1.5503 1.2695a4.771 4.771 0 0 1 .9399 1.5747c.2116.586.3174 1.2533.3174 2.002 0 .7406-.1302 1.416-.3906 2.0264-.2523.6022-.6226 1.123-1.1109 1.5625-.4882.4313-1.0782.7649-1.77 1.0009-.6836.236-1.4485.354-2.2949.354-.8219 0-1.5991-.1139-2.3315-.3418-.7325-.236-1.3794-.59-1.941-1.062-.5533-.4801-.9887-1.0864-1.3061-1.8188-.3174-.7406-.4761-1.6154-.4761-2.6245H74.48c0 .5371.0529.9969.1587 1.3794.1058.3743.2685.6754.4883.9033.2197.2197.4882.3865.8056.5005.3255.1058.6958.1587 1.1109.1587.472 0 .8463-.0896 1.123-.2686.2848-.179.4883-.4191.6104-.7202.122-.3011.1831-.6429.1831-1.0254Zm9.2529-5.7983V28h-3.4302V14.792h3.2227l.2075 2.7344Zm-.4883 3.4179-.9399.0245c-.0163-.9278.0651-1.7823.2441-2.5635.179-.7813.4476-1.4608.8057-2.0386.3662-.5778.826-1.0254 1.3794-1.3428.5534-.3174 1.2003-.476 1.9409-.476.4801 0 .9237.0895 1.3306.2685.4069.1709.7609.4435 1.062.8179.3011.3662.533.8463.6958 1.4404.1627.5859.2441 1.2899.2441 2.1118V28h-3.418v-8.3984c0-.586-.0569-1.0336-.1709-1.3428-.1139-.3174-.2767-.5371-.4882-.6592-.2116-.1302-.472-.1953-.7813-.1953-.3255 0-.6103.0895-.8545.2686-.2441.179-.4435.4313-.5981.7568-.1465.3174-.2604.6917-.3418 1.123-.0733.4313-.1099.8952-.1099 1.3916Zm6.4331-.3418-1.2329.1587c-.0163-.8707.061-1.6805.2319-2.4292.1709-.7568.4354-1.416.7935-1.9775.3581-.5697.8057-1.0132 1.3428-1.3306.5452-.3174 1.1759-.476 1.8921-.476.5371 0 1.0253.0895 1.4648.2685.4395.179.8138.4679 1.123.8667.3171.3906.5571.9074.7201 1.5503.171.6429.257 1.4242.257 2.3437V28h-3.4307v-8.4106c0-.5941-.0569-1.0498-.1709-1.3672-.1139-.3174-.2767-.5331-.4882-.647-.2116-.1139-.4639-.1709-.7569-.1709-.2929 0-.5493.0814-.769.2441-.2116.1628-.3906.3907-.5371.6836-.1465.2849-.2564.6226-.3296 1.0132-.0733.3825-.1099.8016-.1099 1.2573Zm14.9903 4.3579v-6.1035c0-.3987-.049-.7161-.147-.9521-.089-.236-.227-.4069-.415-.5127-.179-.1139-.398-.1709-.659-.1709-.293 0-.537.061-.732.1831-.195.1221-.342.297-.44.5249-.089.2279-.134.5005-.134.8179h-3.43c0-.5697.11-1.1068.33-1.6114.219-.5127.541-.9602.964-1.3427.431-.3907.944-.6958 1.538-.9156.594-.2197 1.261-.3295 2.002-.3295.879 0 1.66.1505 2.344.4516.683.293 1.224.7609 1.623 1.4038.399.6429.598 1.4771.598 2.5025v5.8838c0 .7405.037 1.3427.11 1.8066.082.4639.2.8626.354 1.1963V28h-3.442c-.155-.3662-.273-.8219-.354-1.3672a12.7738 12.7738 0 0 1-.11-1.6724Zm.415-5.0292.012 2.0507h-1.257c-.326 0-.61.0529-.855.1587a1.6437 1.6437 0 0 0-.598.4517c-.163.1872-.285.4069-.366.6592-.073.2522-.11.5208-.11.8056 0 .3174.045.586.134.8057.09.2197.224.3865.403.5005.179.1139.391.1709.635.1709.374 0 .7-.0773.977-.232.276-.1546.48-.3418.61-.5615.138-.2197.183-.4232.134-.6103l.781 1.3305c-.097.3011-.231.6145-.402.94-.163.3255-.371.6266-.623.9033-.252.2767-.566.5046-.94.6836-.366.1709-.801.2563-1.306.2563-.708 0-1.355-.1627-1.941-.4882-.586-.3256-1.05-.7813-1.392-1.3672-.333-.586-.5-1.2818-.5-2.0874 0-.6673.106-1.2696.317-1.8067.22-.5452.546-1.005.977-1.3794.431-.3825.976-.6754 1.636-.8789.659-.2034 1.432-.3051 2.319-.3051h1.355Zm8.972-2.1973V28h-3.418V14.792h3.223l.195 2.9419Zm3.113-3.0396-.049 3.4058c-.155-.0326-.342-.057-.561-.0732-.212-.0163-.399-.0245-.562-.0245-.382 0-.708.0611-.976.1831-.269.114-.493.2889-.672.5249-.171.2279-.301.5127-.39.8545-.09.3418-.143.7284-.159 1.1597l-.647-.2441c0-.8627.065-1.652.195-2.3682.138-.7243.342-1.3509.611-1.8799.268-.5371.59-.9521.964-1.2451.382-.293.814-.4394 1.294-.4394.163 0 .333.0162.512.0488.188.0244.334.0569.44.0976Zm8.118.0977v2.5757h-6.739V14.792h6.739Zm-5.188-3.2593h3.405v12.439c0 .3662.037.647.11.8423.074.1953.183.3336.33.415.154.0732.358.1099.61.1099.171 0 .33-.0082.476-.0244.147-.0245.257-.0489.33-.0733v2.6734a4.7481 4.7481 0 0 1-.855.2441c-.293.057-.643.0854-1.049.0854-.684 0-1.278-.1302-1.783-.3906-.496-.2604-.883-.6754-1.159-1.2451-.277-.5778-.415-1.3346-.415-2.2705V11.5327ZM142.241 28h-3.137l.024-2.9541h3.113c.863 0 1.534-.1546 2.014-.4639.481-.3092.818-.7975 1.014-1.4648.203-.6673.305-1.5422.305-2.6245v-2.771c0-.822-.053-1.5178-.159-2.0874-.106-.5778-.285-1.0417-.537-1.3916-.252-.3581-.59-.6226-1.013-.7935-.423-.1709-.948-.2563-1.575-.2563h-3.247v-2.9663h3.247c1.025 0 1.957.1668 2.795.5005.839.3336 1.559.8219 2.161 1.4648.602.6348 1.066 1.4201 1.392 2.356.325.9358.488 2.0019.488 3.1982v2.7466c0 1.2044-.163 2.2705-.488 3.1982-.326.9278-.79 1.7131-1.392 2.356-.594.6347-1.314 1.119-2.161 1.4526-.846.3337-1.794.5005-2.844.5005Zm-1.062-17.7734V28h-3.576V10.2266h3.576Zm15.711 18.0175c-.904 0-1.705-.1383-2.405-.415-.692-.2767-1.278-.6755-1.758-1.1963-.48-.529-.846-1.1678-1.099-1.9165-.252-.7487-.378-1.6032-.378-2.5635v-1.0864c0-1.0742.122-2.0142.366-2.8198.244-.8138.59-1.4974 1.038-2.0508.447-.5534.997-.9644 1.648-1.2329.659-.2767 1.404-.415 2.234-.415.83 0 1.558.1383 2.185.415.634.2685 1.159.6754 1.574 1.2207.415.5371.729 1.2044.94 2.0019.212.7976.318 1.7253.318 2.7833v1.5624h-8.85v-2.4047h5.493v-.3052c0-.5371-.057-.9847-.171-1.3428-.114-.3662-.293-.6388-.537-.8179-.244-.179-.57-.2685-.977-.2685-.342 0-.63.0692-.866.2075-.236.1384-.424.354-.562.647-.138.293-.24.6754-.305 1.1474-.065.4639-.098 1.0214-.098 1.6724v1.0864c0 .6104.053 1.1231.159 1.5381.106.4069.26.7406.464 1.001.211.2523.468.4354.769.5493.301.1058.651.1587 1.05.1587.602 0 1.143-.1058 1.623-.3174.488-.2197.903-.5167 1.245-.8911l1.367 2.0752c-.236.3092-.561.6185-.976.9277-.415.3093-.912.5616-1.489.7569-.578.1953-1.246.2929-2.002.2929Zm10.363-2.8808 2.124-10.5713h3.565L169.316 28h-2.136l.073-2.6367Zm-1.257-10.5713 2.161 10.5835.036 2.6245h-2.148l-3.626-13.208h3.577Zm12.183 0V28h-3.43V14.792h3.43Zm-3.589-3.418c0-.5289.167-.9643.5-1.3061.342-.35.798-.525 1.368-.525.577 0 1.033.175 1.367.525.333.3418.5.7772.5 1.3061 0 .5209-.171.9562-.513 1.3062-.333.3418-.781.5127-1.342.5127-.578 0-1.038-.1709-1.38-.5127-.333-.35-.5-.7853-.5-1.3062Zm11.072 14.0259c.317 0 .59-.0651.817-.1953.236-.1302.416-.3418.538-.6348.122-.2929.187-.6714.195-1.1352h3.21c0 .9928-.211 1.8514-.634 2.5757-.415.7161-.977 1.2695-1.685 1.6601-.7.3825-1.493.5737-2.38.5737-.887 0-1.661-.1424-2.32-.4272-.659-.2848-1.204-.6999-1.635-1.2451-.424-.5453-.745-1.2085-.965-1.9898-.211-.7894-.317-1.6927-.317-2.7099v-.9644c0-1.001.106-1.8961.317-2.6855.22-.7894.541-1.4567.965-2.002.431-.5452.972-.9603 1.623-1.2451.659-.2848 1.432-.4272 2.319-.4272.953 0 1.779.1993 2.478.5981.7.3906 1.246.9684 1.636 1.7334.399.765.598 1.709.598 2.832h-3.21c-.008-.5045-.069-.9236-.183-1.2573-.106-.3418-.273-.6022-.501-.7812-.219-.1872-.512-.2808-.879-.2808-.382 0-.691.0814-.927.2441-.228.1547-.403.3825-.525.6836-.114.293-.191.6592-.232 1.0987-.041.4394-.061.9358-.061 1.4892v.9644c0 .594.016 1.1108.049 1.5503.04.4313.118.7975.232 1.0986.122.293.297.5127.524.6592.236.1465.554.2197.953.2197Zm12.048 2.8442c-.903 0-1.705-.1383-2.405-.415-.692-.2767-1.277-.6755-1.758-1.1963-.48-.529-.846-1.1678-1.098-1.9165-.253-.7487-.379-1.6032-.379-2.5635v-1.0864c0-1.0742.122-2.0142.367-2.8198.244-.8138.59-1.4974 1.037-2.0508.448-.5534.997-.9644 1.648-1.2329.659-.2767 1.404-.415 2.234-.415.83 0 1.558.1383 2.185.415.635.2685 1.16.6754 1.575 1.2207.415.5371.728 1.2044.94 2.0019.211.7976.317 1.7253.317 2.7833v1.5624h-8.85v-2.4047h5.493v-.3052c0-.5371-.057-.9847-.171-1.3428-.114-.3662-.293-.6388-.537-.8179-.244-.179-.57-.2685-.976-.2685-.342 0-.631.0692-.867.2075-.236.1384-.423.354-.562.647-.138.293-.24.6754-.305 1.1474-.065.4639-.098 1.0214-.098 1.6724v1.0864c0 .6104.053 1.1231.159 1.5381.106.4069.261.7406.464 1.001.212.2523.468.4354.769.5493.301.1058.651.1587 1.05.1587.602 0 1.143-.1058 1.623-.3174.489-.2197.904-.5167 1.246-.8911l1.367 2.0752c-.236.3092-.562.6185-.977.9277-.415.3093-.911.5616-1.489.7569-.578.1953-1.245.2929-2.002.2929Z" fill="#F2F5F7"/><path d="m72.5664 45.3086 1.7227-5.6484h1.5117l-2.543 7.3066c-.0586.1562-.1348.3262-.2285.5098-.0938.1836-.2168.3574-.3691.5214-.1485.168-.334.3028-.5567.4043-.2226.1055-.4922.1582-.8086.1582-.125 0-.2461-.0117-.3633-.0351a5.7852 5.7852 0 0 1-.3222-.0645l-.0059-1.0781c.0391.0039.086.0078.1406.0117.0586.0039.1055.0059.1407.0059.2343 0 .4297-.0293.5859-.0879.1563-.0547.2832-.1445.3809-.2695.1015-.125.1875-.293.2578-.5039l.457-1.2305Zm-.9726-5.6484 1.5058 4.746.252 1.4883-.9786.252-2.3027-6.4863h1.5235Zm8.7832 4.6289 1.8867-4.6289h1.2246L80.8574 46h-.9609l-2.625-6.3398h1.2246l1.8809 4.6289Zm-2.2442-4.6289V46h-1.4121v-6.3398h1.4121ZM82.6211 46v-6.3398h1.418V46h-1.418Zm7.3301-3.6914v1.1133h-3.2813v-1.1133h3.2813Zm-2.8711-2.6484V46H85.668v-6.3398h1.4121Zm3.8906 0V46h-1.4121v-6.3398h1.4121Zm2.5547 2.0156h1.8691c.5469 0 1.0117.0918 1.3946.2754.3828.1836.6738.4394.873.7676.2031.3242.3047.6953.3047 1.1132 0 .3086-.0566.5957-.1699.8614-.1133.2617-.2813.4902-.5039.6855-.2188.1953-.4883.3477-.8086.457-.3164.1094-.6797.1641-1.0899.1641h-2.8066v-6.3398h1.418v5.2207h1.3886c.2813 0 .5059-.0489.6739-.1465.1679-.0977.289-.2246.3632-.3809a1.0977 1.0977 0 0 0 .1172-.498 1.147 1.147 0 0 0-.1172-.5098c-.0742-.1602-.1953-.291-.3632-.3926-.168-.1015-.3926-.1523-.6739-.1523h-1.8691v-1.125Zm6.9376-2.0156V46h-1.4122v-6.3398h1.4122Zm4.465 6.457c-.469 0-.893-.0762-1.272-.2285-.375-.1563-.695-.3731-.961-.6504-.261-.2774-.463-.6035-.603-.9785-.141-.375-.211-.7793-.211-1.2129v-.2344c0-.4961.072-.9453.217-1.3477.144-.4023.345-.746.603-1.0312.258-.2891.563-.5098.914-.6621.352-.1524.733-.2285 1.143-.2285.453 0 .849.0761 1.189.2285.34.1523.621.3672.844.6445.227.2735.395.5996.504.9785.113.3789.17.7969.17 1.2539v.6036h-4.899v-1.0137h3.504v-.1113c-.008-.254-.058-.4922-.152-.7149-.09-.2226-.229-.4023-.416-.5391-.188-.1367-.438-.205-.75-.205-.234 0-.443.0508-.627.1523-.18.0977-.33.2402-.451.4277-.121.1875-.215.4141-.281.6797-.063.2618-.094.5567-.094.8848v.2344c0 .2773.037.5351.111.7734.078.2344.192.4395.34.6152.148.1758.328.3145.539.4161.211.0976.451.1464.721.1464.34 0 .642-.0683.908-.205.266-.1368.496-.3301.691-.5801l.745.7207c-.137.1992-.315.3906-.534.5742-.218.1797-.486.3262-.802.4395-.313.1132-.676.1699-1.09.1699Zm9.568-6.457V46h-1.418v-6.3398h1.418Zm2.08 0v1.1132h-5.543v-1.1132h5.543Zm3.305 6.457c-.469 0-.893-.0762-1.272-.2285-.375-.1563-.695-.3731-.961-.6504-.261-.2774-.462-.6035-.603-.9785-.141-.375-.211-.7793-.211-1.2129v-.2344c0-.4961.072-.9453.217-1.3477.144-.4023.345-.746.603-1.0312.258-.2891.563-.5098.914-.6621.352-.1524.733-.2285 1.143-.2285.453 0 .85.0761 1.189.2285.34.1523.621.3672.844.6445.227.2735.395.5996.504.9785.113.3789.17.7969.17 1.2539v.6036h-4.898v-1.0137h3.503v-.1113c-.007-.254-.058-.4922-.152-.7149-.09-.2226-.228-.4023-.416-.5391-.187-.1367-.437-.205-.75-.205-.234 0-.443.0508-.627.1523-.18.0977-.33.2402-.451.4277-.121.1875-.215.4141-.281.6797-.063.2618-.094.5567-.094.8848v.2344c0 .2773.037.5351.111.7734.078.2344.192.4395.34.6152.149.1758.328.3145.539.4161.211.0976.451.1464.721.1464.34 0 .642-.0683.908-.205.266-.1368.496-.3301.691-.5801l.745.7207c-.137.1992-.315.3906-.534.5742-.218.1797-.486.3262-.802.4395-.313.1132-.676.1699-1.09.1699Zm4.717-6.457 1.207 2.1035 1.23-2.1035h1.553l-1.922 3.1113L128.664 46h-1.553l-1.289-2.1914L124.533 46h-1.558l1.992-3.2285-1.916-3.1113h1.547Zm9.287 2.6484v1.1133h-3.281v-1.1133h3.281Zm-2.871-2.6484V46h-1.412v-6.3398h1.412Zm3.89 0V46h-1.412v-6.3398h1.412Zm1.237 3.2402v-.1348c0-.457.066-.8808.199-1.2715.133-.3945.324-.7363.574-1.0253.254-.293.563-.5196.926-.6797.367-.1641.781-.2461 1.242-.2461.465 0 .879.082 1.242.2461.367.1601.678.3867.932.6797.254.289.447.6308.58 1.0253.133.3907.199.8145.199 1.2715v.1348c0 .457-.066.8808-.199 1.2715-.133.3906-.326.7324-.58 1.0254-.254.289-.563.5156-.926.6797-.363.1601-.775.2402-1.236.2402-.465 0-.881-.0801-1.248-.2402-.364-.1641-.672-.3907-.926-.6797-.254-.293-.447-.6348-.58-1.0254-.133-.3907-.199-.8145-.199-1.2715Zm1.412-.1348v.1348c0 .2851.029.5547.088.8086.058.2539.15.4765.275.668.125.1914.285.3418.48.4511.196.1094.428.1641.698.1641.261 0 .488-.0547.679-.1641.196-.1093.356-.2597.481-.4511.125-.1915.217-.4141.275-.668.063-.2539.094-.5235.094-.8086v-.1348c0-.2812-.031-.5468-.094-.7968-.058-.254-.152-.4786-.281-.6739-.125-.1953-.285-.3476-.48-.457-.192-.1133-.42-.1699-.686-.1699-.266 0-.496.0566-.691.1699-.192.1094-.35.2617-.475.457-.125.1953-.217.4199-.275.6739-.059.25-.088.5156-.088.7968Zm9.832-3.1054v1.125h-3.094v-1.125h3.094Zm1.107 0V46h-1.412v-6.3398h1.412Zm-4.547 0h1.395l-.17 3.1347c-.024.4649-.07.875-.141 1.2305-.066.3516-.156.6543-.269.9082-.114.25-.252.4531-.416.6094a1.544 1.544 0 0 1-.574.3457c-.219.0742-.465.1113-.739.1113h-.439l-.006-1.1602.223-.0175c.144-.0118.269-.0489.375-.1114.105-.0664.195-.1601.269-.2812.078-.1211.141-.2774.188-.4688.05-.1914.089-.4179.117-.6797.031-.2617.054-.5664.07-.914l.117-2.707Zm5.778 3.2402v-.1348c0-.457.066-.8808.199-1.2715.133-.3945.324-.7363.574-1.0253.254-.293.563-.5196.926-.6797.367-.1641.781-.2461 1.242-.2461.465 0 .879.082 1.242.2461.367.1601.678.3867.932.6797.254.289.447.6308.58 1.0253.133.3907.199.8145.199 1.2715v.1348c0 .457-.066.8808-.199 1.2715-.133.3906-.326.7324-.58 1.0254-.254.289-.563.5156-.926.6797-.363.1601-.775.2402-1.236.2402-.465 0-.881-.0801-1.248-.2402-.364-.1641-.672-.3907-.926-.6797-.254-.293-.447-.6348-.58-1.0254-.133-.3907-.199-.8145-.199-1.2715Zm1.412-.1348v.1348c0 .2851.029.5547.088.8086.058.2539.15.4765.275.668.125.1914.285.3418.481.4511.195.1094.427.1641.697.1641.262 0 .488-.0547.679-.1641.196-.1093.356-.2597.481-.4511.125-.1915.217-.4141.275-.668.063-.2539.094-.5235.094-.8086v-.1348c0-.2812-.031-.5468-.094-.7968-.058-.254-.152-.4786-.281-.6739-.125-.1953-.285-.3476-.48-.457-.192-.1133-.42-.1699-.686-.1699-.266 0-.496.0566-.691.1699-.192.1094-.35.2617-.475.457-.125.1953-.217.4199-.275.6739-.059.25-.088.5156-.088.7968Zm9.885-3.1054v1.125h-2.766V46h-1.412v-6.3398h4.178Zm2.279 4.2773 2.49-4.2773h1.412V46h-1.412v-4.2832L163.299 46h-1.412v-6.3398h1.412v4.2773Zm6.855 0 2.491-4.2773h1.412V46h-1.412v-4.2832L170.154 46h-1.412v-6.3398h1.412v4.2773Z" fill="#F8FDFF" fill-opacity=".7"/><path d="M33.9167 14.6665c1.1935 0 2.2018.7691 2.5813 1.8333h9.504c.3795-1.0642 1.3879-1.8333 2.5814-1.8333 1.5161 0 2.75 1.2338 2.75 2.75 0 1.5161-1.2339 2.7499-2.75 2.7499-1.1935 0-2.2019-.7691-2.5814-1.8333h-9.5049c-.3795 1.0642-1.3878 1.8333-2.5813 1.8333-1.5162 0-2.75-1.2338-2.75-2.7499 0-1.5162 1.2347-2.75 2.7509-2.75Zm14.6667 3.6666c.505 0 .9166-.4106.9166-.9166s-.4116-.9167-.9166-.9167c-.5051 0-.9167.4107-.9167.9167s.4116.9166.9167.9166Zm-14.6667 0c.5051 0 .9167-.4106.9167-.9166s-.4116-.9167-.9167-.9167c-.5051 0-.9167.4107-.9167.9167s.4116.9166.9167.9166Z" fill="#00B2FF"/><path d="M26.5834 20.3349v-5.6686a.913.913 0 0 1 .2685-.6481l3.6667-3.6666a.9143.9143 0 0 1 .6481-.2685h2.9187c.3795-1.0643 1.3878-1.8333 2.5813-1.8333 1.5162 0 2.75 1.2338 2.75 2.7499 0 1.5162-1.2338 2.75-2.75 2.75-1.1935 0-2.2018-.7691-2.5813-1.8333h-2.5392l-3.1295 3.1294v5.2891c1.0642.3795 1.8333 1.3878 1.8333 2.5813 0 1.5161-1.2338 2.7499-2.75 2.7499-1.5161 0-2.75-1.2338-2.75-2.7499 0-1.1935.7691-2.2018 1.8334-2.5813Zm10.0833-8.4185c.5051 0 .9167-.4107.9167-.9167s-.4116-.9166-.9167-.9166c-.5051 0-.9167.4106-.9167.9166s.4116.9167.9167.9167ZM27.5 23.8328c.5051 0 .9167-.4106.9167-.9166s-.4116-.9167-.9167-.9167c-.5051 0-.9166.4107-.9166.9167s.4115.9166.9166.9166ZM10.0833 23.8329c.4235 0 .8195.1036 1.178.276l1.572-1.5721v-8.787a.9127.9127 0 0 1 .2686-.6481l9.174-9.1738C22.1036 3.5693 22 3.1733 22 2.7498 22 1.234 23.2338 0 24.75 0s2.75 1.2338 2.75 2.75c0 1.5161-1.2338 2.75-2.75 2.75-.4235 0-.8195-.1037-1.1779-.276l-8.9054 8.9053v8.787a.913.913 0 0 1-.2686.6481l-1.8407 1.8406c.1724.3584.2759.7544.2759 1.1779 0 1.5161-1.2338 2.7499-2.75 2.7499-1.5161 0-2.75-1.2338-2.75-2.7499 0-1.5162 1.2339-2.75 2.75-2.75ZM24.75 3.6666c.5051 0 .9167-.4106.9167-.9166s-.4116-.9167-.9167-.9167c-.5051 0-.9167.4107-.9167.9167s.4116.9166.9167.9166ZM10.0833 27.4995c.5051 0 .9167-.4106.9167-.9166s-.4116-.9167-.9167-.9167c-.505 0-.9166.4107-.9166.9167s.4116.9166.9166.9166ZM1.8334 13.0018V9.1665a.9126.9126 0 0 1 .2686-.648l6.4166-6.4166a.9143.9143 0 0 1 .6481-.2686h4.752C14.2982.7691 15.3065 0 16.5 0c1.5162 0 2.75 1.2338 2.75 2.75 0 1.5161-1.2338 2.75-2.75 2.75-1.1935 0-2.2018-.7692-2.5813-1.8334H9.5462L3.6667 9.546v3.4558C4.7309 13.3813 5.5 14.3896 5.5 15.5831c0 1.5161-1.2338 2.7499-2.75 2.7499-1.5161 0-2.75-1.2338-2.75-2.7499 0-1.1935.7691-2.2018 1.8334-2.5813ZM16.5 3.6666c.5051 0 .9167-.4106.9167-.9166s-.4116-.9167-.9167-.9167c-.5051 0-.9166.4107-.9166.9167s.4115.9166.9166.9166ZM2.75 16.4997c.5051 0 .9167-.4106.9167-.9166s-.4116-.9167-.9167-.9167c-.505 0-.9166.4107-.9166.9167s.4115.9166.9166.9166ZM14.6658 49.6688V36.4974c-1.0634-.3795-1.8324-1.3878-1.8324-2.5813 0-1.5161 1.2338-2.7499 2.75-2.7499 1.1935 0 2.2018.769 2.5813 1.8333h9.504c.3795-1.0643 1.3878-1.8333 2.5813-1.8333 1.1935 0 2.2019.769 2.5814 1.8333h5.2891l3.4054-3.4054c-.1723-.3584-.2759-.7544-.2759-1.1779 0-1.5161 1.2339-2.7499 2.75-2.7499 1.5162 0 2.75 1.2338 2.75 2.7499 0 1.5162-1.2338 2.75-2.75 2.75-.4235 0-.8195-.1036-1.1779-.2759l-3.674 3.6739a.9144.9144 0 0 1-.6481.2686h-5.6686c-.3795 1.0642-1.3879 1.8333-2.5814 1.8333s-2.2018-.7691-2.5813-1.8333h-9.5049a2.7474 2.7474 0 0 1-1.6647 1.6646v13.1714c1.0643.3795 1.8333 1.3878 1.8333 2.5813 0 1.5161-1.2338 2.7499-2.75 2.7499-1.5161 0-2.75-1.2338-2.75-2.7499 0-1.1935.7691-2.2018 1.8334-2.5813ZM44 29.3329c.5051 0 .9167-.4107.9167-.9167s-.4116-.9166-.9167-.9166c-.5051 0-.9166.4106-.9166.9166s.4115.9167.9166.9167Zm-13.75 5.4999c.5051 0 .9167-.4107.9167-.9167s-.4116-.9166-.9167-.9166c-.5051 0-.9166.4106-.9166.9166s.4115.9167.9166.9167Zm-14.6666 18.333c.505 0 .9166-.4107.9166-.9166 0-.506-.4116-.9167-.9166-.9167-.5051 0-.9167.4107-.9167.9167 0 .5059.4116.9166.9167.9166Zm0-18.333c.505 0 .9166-.4107.9166-.9167s-.4116-.9166-.9166-.9166c-.5051 0-.9167.4106-.9167.9166s.4116.9167.9167.9167Z" fill="#00B2FF"/><path d="M19.25 18.5017v-2.9186a.9127.9127 0 0 1 .2686-.6481L30.5259 3.9278c-.1723-.3584-.2759-.7544-.2759-1.1778C30.25 1.2338 31.4838 0 33 0c1.1935 0 2.2018.769 2.5813 1.8333h3.8354c.506 0 .9166.4098.9166.9167v2.3704l3.4055 3.4054c.3584-.1724.7544-.276 1.1779-.276 1.5161 0 2.75 1.2339 2.75 2.75 0 1.5162-1.2339 2.75-2.75 2.75-1.5162 0-2.75-1.2338-2.75-2.75 0-.4235.1036-.8195.2759-1.1779l-3.674-3.674A.9128.9128 0 0 1 38.5 5.5V3.6666h-2.9187C35.2018 4.7308 34.1935 5.5 33 5.5c-.4235 0-.8195-.1036-1.1779-.2759L21.0833 15.9626v2.5391c1.0643.3795 1.8334 1.3878 1.8334 2.5813 0 1.5161-1.2339 2.7499-2.75 2.7499-1.5162 0-2.75-1.2338-2.75-2.7499 0-1.1935.7691-2.2018 1.8333-2.5813Zm25.6667-6.5852c.5051 0 .9166-.4107.9166-.9167s-.4115-.9166-.9166-.9166-.9167.4106-.9167.9166.4116.9167.9167.9167ZM33 3.6666c.5051 0 .9167-.4106.9167-.9166s-.4116-.9167-.9167-.9167c-.5051 0-.9167.4107-.9167.9167s.4116.9166.9167.9166Zm-12.8333 18.333c.5051 0 .9166-.4106.9166-.9166s-.4115-.9167-.9166-.9167-.9167.4107-.9167.9167.4116.9166.9167.9166Z" fill="#00B2FF"/><path d="M22 25.6662c1.1935 0 2.2018.7691 2.5813 1.8333h10.7892l5.2314-5.2313a.9144.9144 0 0 1 .6481-.2686h9.7038l2.2129-2.2128V12.296l-7.0721-7.072c-.3584.1723-.7544.276-1.1779.276-1.5162 0-2.75-1.2339-2.75-2.75 0-1.5162 1.2338-2.75 2.75-2.75 1.5161 0 2.75 1.2338 2.75 2.75 0 .4234-.1036.8194-.276 1.1778l7.3407 7.3406a.9127.9127 0 0 1 .2686.6481v8.2498a.9127.9127 0 0 1-.2686.6481l-2.75 2.75a.9143.9143 0 0 1-.6481.2685h-9.7038l-5.2314 5.2314a.9143.9143 0 0 1-.6481.2685H24.5813c-.3795 1.0643-1.3878 1.8333-2.5813 1.8333-1.5162 0-2.75-1.2338-2.75-2.7499 0-1.5161 1.2338-2.75 2.75-2.75ZM44.9167 1.8333c-.5051 0-.9167.4107-.9167.9167s.4116.9166.9167.9166c.505 0 .9166-.4106.9166-.9166s-.4116-.9167-.9166-.9167ZM22 29.3328c.5051 0 .9167-.4106.9167-.9166s-.4116-.9167-.9167-.9167c-.5051 0-.9167.4107-.9167.9167s.4116.9166.9167.9166ZM2.75 21.9995c.4235 0 .8195.1036 1.178.2759l3.4053-3.4053V13.581C6.2691 13.2015 5.5 12.1932 5.5 10.9997c0-1.5161 1.2338-2.75 2.75-2.75S11 9.4837 11 10.9998c0 1.1935-.7691 2.2018-1.8333 2.5813v5.6686a.9125.9125 0 0 1-.2686.648l-3.674 3.674c.1723.3584.276.7544.276 1.1779 0 1.1935-.7692 2.2018-1.8334 2.5813v.7058l7.0647 7.0646a.9125.9125 0 0 1 .2686.6481v1.0853c1.0643.3795 1.8333 1.3878 1.8333 2.5813 0 1.1935-.769 2.2018-1.8333 2.5813v2.1715c1.0643.3795 1.8333 1.3878 1.8333 2.5813 0 1.5162-1.2338 2.75-2.75 2.75-1.5161 0-2.75-1.2338-2.75-2.75 0-1.1935.7691-2.2018 1.8334-2.5813v-2.1715c-1.0643-.3795-1.8334-1.3878-1.8334-2.5813 0-1.1935.7691-2.2018 1.8334-2.5813v-.7058l-7.0648-7.0646a.9129.9129 0 0 1-.2686-.6481v-1.0853C.7691 26.9513 0 25.943 0 24.7495c0-1.5162 1.2338-2.75 2.75-2.75Zm5.5-10.0831c.505 0 .9167-.4107.9167-.9167s-.4116-.9166-.9167-.9166c-.505 0-.9167.4106-.9167.9166s.4116.9167.9167.9167Zm1.8333 35.7494c.5051 0 .9167-.4107.9167-.9167s-.4116-.9166-.9167-.9166c-.505 0-.9166.4106-.9166.9166s.4116.9167.9166.9167Zm0-7.3332c.5051 0 .9167-.4107.9167-.9167s-.4116-.9166-.9167-.9166c-.505 0-.9166.4106-.9166.9166s.4116.9167.9166.9167ZM2.75 25.6661c.505 0 .9167-.4106.9167-.9166s-.4116-.9167-.9167-.9167c-.505 0-.9167.4107-.9167.9167s.4116.9166.9167.9166Z" fill="#00B2FF"/></svg>